STARTFONT 2.1
FONT -B&H-Lucida Bright-DemiBold-R-Normal--6-60-72-72-P-37-ISO8859-1
SIZE 6 72 72
FONTBOUNDINGBOX 11 6 -3 -1

STARTPROPERTIES 22
FONTNAME_REGISTRY "-"
FOUNDRY "B&H"
FAMILY_NAME "Lucida Bright"
WEIGHT_NAME "DemiBold"
SLANT "R"
SETWIDTH_NAME "Normal"
ADD_STYLE_NAME ""
PIXEL_SIZE 6
POINT_SIZE 60
RESOLUTION_X 72
RESOLUTION_Y 72
SPACING "P"
CHARSET_REGISTRY "ISO8859"
CHARSET_ENCODING "1"
FULL_NAME "LucidaBright-Demi"
AVERAGE_WIDTH 37
WEIGHT 10
X_HEIGHT 3
QUAD_WIDTH 4
DEFAULT_CHAR 32
FONT_DESCENT 1
FONT_ASCENT 6
ENDPROPERTIES

CHARS 190

STARTCHAR space
ENCODING 32
SWIDTH 333 0
DWIDTH 2 0
BBX 1 1 0 0
BITMAP
00
ENDCHAR

STARTCHAR exclam
ENCODING 33
SWIDTH 265 0
DWIDTH 2 0
BBX 1 4 0 0
BITMAP
80
80
80
80
ENDCHAR

STARTCHAR quotedbl
ENCODING 34
SWIDTH 461 0
DWIDTH 3 0
BBX 2 2 0 2
BITMAP
C0
C0
ENDCHAR

STARTCHAR numbersign
ENCODING 35
SWIDTH 663 0
DWIDTH 4 0
BBX 4 4 0 0
BITMAP
70
F0
E0
E0
ENDCHAR

STARTCHAR dollar
ENCODING 36
SWIDTH 623 0
DWIDTH 4 0
BBX 3 4 0 0
BITMAP
E0
60
E0
E0
ENDCHAR

STARTCHAR percent
ENCODING 37
SWIDTH 759 0
DWIDTH 5 0
BBX 5 4 0 0
BITMAP
D8
F0
78
F8
ENDCHAR

STARTCHAR ampersand
ENCODING 38
SWIDTH 765 0
DWIDTH 5 0
BBX 5 4 0 0
BITMAP
70
50
B8
F8
ENDCHAR

STARTCHAR quoteright
ENCODING 39
SWIDTH 265 0
DWIDTH 2 0
BBX 1 2 0 2
BITMAP
80
80
ENDCHAR

STARTCHAR parenleft
ENCODING 40
SWIDTH 327 0
DWIDTH 2 0
BBX 2 5 0 -1
BITMAP
40
80
80
80
40
ENDCHAR

STARTCHAR parenright
ENCODING 41
SWIDTH 327 0
DWIDTH 2 0
BBX 2 5 0 -1
BITMAP
80
40
40
40
80
ENDCHAR

STARTCHAR asterisk
ENCODING 42
SWIDTH 434 0
DWIDTH 3 0
BBX 3 2 0 2
BITMAP
E0
C0
ENDCHAR

STARTCHAR plus
ENCODING 43
SWIDTH 623 0
DWIDTH 4 0
BBX 5 5 0 0
BITMAP
20
20
F8
20
20
ENDCHAR

STARTCHAR comma
ENCODING 44
SWIDTH 265 0
DWIDTH 2 0
BBX 1 3 0 -1
BITMAP
80
80
80
ENDCHAR

STARTCHAR minus
ENCODING 45
SWIDTH 623 0
DWIDTH 4 0
BBX 3 1 0 1
BITMAP
E0
ENDCHAR

STARTCHAR period
ENCODING 46
SWIDTH 265 0
DWIDTH 2 0
BBX 1 1 0 0
BITMAP
80
ENDCHAR

STARTCHAR slash
ENCODING 47
SWIDTH 527 0
DWIDTH 3 0
BBX 4 5 0 -1
BITMAP
30
20
40
C0
80
ENDCHAR

STARTCHAR zero
ENCODING 48
SWIDTH 623 0
DWIDTH 4 0
BBX 3 4 0 0
BITMAP
E0
A0
A0
E0
ENDCHAR

STARTCHAR one
ENCODING 49
SWIDTH 623 0
DWIDTH 4 0
BBX 3 4 0 0
BITMAP
C0
40
40
E0
ENDCHAR

STARTCHAR two
ENCODING 50
SWIDTH 623 0
DWIDTH 4 0
BBX 3 4 0 0
BITMAP
E0
A0
40
E0
ENDCHAR

STARTCHAR three
ENCODING 51
SWIDTH 623 0
DWIDTH 4 0
BBX 3 4 0 0
BITMAP
E0
E0
A0
E0
ENDCHAR

STARTCHAR four
ENCODING 52
SWIDTH 623 0
DWIDTH 4 0
BBX 3 4 0 0
BITMAP
60
60
E0
20
ENDCHAR

STARTCHAR five
ENCODING 53
SWIDTH 623 0
DWIDTH 4 0
BBX 3 4 0 0
BITMAP
E0
E0
A0
E0
ENDCHAR

STARTCHAR six
ENCODING 54
SWIDTH 623 0
DWIDTH 4 0
BBX 3 4 0 0
BITMAP
60
E0
A0
E0
ENDCHAR

STARTCHAR seven
ENCODING 55
SWIDTH 623 0
DWIDTH 4 0
BBX 3 4 1 0
BITMAP
E0
60
C0
80
ENDCHAR

STARTCHAR eight
ENCODING 56
SWIDTH 623 0
DWIDTH 4 0
BBX 3 4 0 0
BITMAP
E0
E0
A0
E0
ENDCHAR

STARTCHAR nine
ENCODING 57
SWIDTH 623 0
DWIDTH 4 0
BBX 3 4 0 0
BITMAP
E0
A0
E0
C0
ENDCHAR

STARTCHAR colon
ENCODING 58
SWIDTH 265 0
DWIDTH 2 0
BBX 1 3 0 0
BITMAP
80
00
80
ENDCHAR

STARTCHAR semicolon
ENCODING 59
SWIDTH 265 0
DWIDTH 2 0
BBX 1 4 0 -1
BITMAP
80
00
80
80
ENDCHAR

STARTCHAR less
ENCODING 60
SWIDTH 623 0
DWIDTH 4 0
BBX 4 3 1 0
BITMAP
30
E0
30
ENDCHAR

STARTCHAR equal
ENCODING 61
SWIDTH 623 0
DWIDTH 4 0
BBX 3 2 0 1
BITMAP
E0
E0
ENDCHAR

STARTCHAR greater
ENCODING 62
SWIDTH 623 0
DWIDTH 4 0
BBX 5 3 0 0
BITMAP
C0
38
C0
ENDCHAR

STARTCHAR question
ENCODING 63
SWIDTH 505 0
DWIDTH 3 0
BBX 3 4 0 0
BITMAP
E0
A0
40
40
ENDCHAR

STARTCHAR at
ENCODING 64
SWIDTH 861 0
DWIDTH 5 0
BBX 5 4 0 0
BITMAP
70
B8
B8
70
ENDCHAR

STARTCHAR A
ENCODING 65
SWIDTH 795 0
DWIDTH 5 0
BBX 5 4 0 0
BITMAP
20
70
F0
98
ENDCHAR

STARTCHAR B
ENCODING 66
SWIDTH 639 0
DWIDTH 4 0
BBX 3 4 0 0
BITMAP
E0
E0
A0
E0
ENDCHAR

STARTCHAR C
ENCODING 67
SWIDTH 711 0
DWIDTH 4 0
BBX 4 4 0 0
BITMAP
70
90
80
70
ENDCHAR

STARTCHAR D
ENCODING 68
SWIDTH 794 0
DWIDTH 5 0
BBX 4 4 0 0
BITMAP
E0
90
90
E0
ENDCHAR

STARTCHAR E
ENCODING 69
SWIDTH 601 0
DWIDTH 4 0
BBX 3 4 0 0
BITMAP
E0
E0
80
E0
ENDCHAR

STARTCHAR F
ENCODING 70
SWIDTH 584 0
DWIDTH 4 0
BBX 3 4 0 0
BITMAP
E0
E0
80
C0
ENDCHAR

STARTCHAR G
ENCODING 71
SWIDTH 753 0
DWIDTH 5 0
BBX 4 4 0 0
BITMAP
70
90
90
70
ENDCHAR

STARTCHAR H
ENCODING 72
SWIDTH 798 0
DWIDTH 5 0
BBX 4 4 0 0
BITMAP
90
F0
90
90
ENDCHAR

STARTCHAR I
ENCODING 73
SWIDTH 349 0
DWIDTH 2 0
BBX 1 4 1 0
BITMAP
80
80
80
80
ENDCHAR

STARTCHAR J
ENCODING 74
SWIDTH 452 0
DWIDTH 3 0
BBX 2 5 0 -1
BITMAP
40
40
40
C0
C0
ENDCHAR

STARTCHAR K
ENCODING 75
SWIDTH 747 0
DWIDTH 4 0
BBX 3 4 1 0
BITMAP
A0
A0
C0
A0
ENDCHAR

STARTCHAR L
ENCODING 76
SWIDTH 584 0
DWIDTH 4 0
BBX 3 4 0 0
BITMAP
80
80
A0
E0
ENDCHAR

STARTCHAR M
ENCODING 77
SWIDTH 904 0
DWIDTH 5 0
BBX 5 4 0 0
BITMAP
C8
D8
B8
A8
ENDCHAR

STARTCHAR N
ENCODING 78
SWIDTH 788 0
DWIDTH 5 0
BBX 4 4 0 0
BITMAP
90
D0
B0
90
ENDCHAR

STARTCHAR O
ENCODING 79
SWIDTH 810 0
DWIDTH 5 0
BBX 4 4 0 0
BITMAP
60
90
90
60
ENDCHAR

STARTCHAR P
ENCODING 80
SWIDTH 614 0
DWIDTH 4 0
BBX 3 4 0 0
BITMAP
E0
A0
E0
C0
ENDCHAR

STARTCHAR Q
ENCODING 81
SWIDTH 810 0
DWIDTH 5 0
BBX 5 5 0 -1
BITMAP
60
90
90
60
18
ENDCHAR

STARTCHAR R
ENCODING 82
SWIDTH 720 0
DWIDTH 4 0
BBX 4 4 0 0
BITMAP
E0
E0
A0
B0
ENDCHAR

STARTCHAR S
ENCODING 83
SWIDTH 556 0
DWIDTH 3 0
BBX 3 4 0 0
BITMAP
E0
A0
E0
E0
ENDCHAR

STARTCHAR T
ENCODING 84
SWIDTH 714 0
DWIDTH 4 0
BBX 5 4 0 0
BITMAP
F8
20
20
70
ENDCHAR

STARTCHAR U
ENCODING 85
SWIDTH 747 0
DWIDTH 4 0
BBX 4 4 0 0
BITMAP
90
90
90
F0
ENDCHAR

STARTCHAR V
ENCODING 86
SWIDTH 753 0
DWIDTH 5 0
BBX 5 4 0 0
BITMAP
D8
50
50
20
ENDCHAR

STARTCHAR W
ENCODING 87
SWIDTH 955 0
DWIDTH 6 0
BBX 6 4 0 0
BITMAP
E4
B4
78
50
ENDCHAR

STARTCHAR X
ENCODING 88
SWIDTH 702 0
DWIDTH 4 0
BBX 4 4 0 0
BITMAP
D0
50
60
B0
ENDCHAR

STARTCHAR Y
ENCODING 89
SWIDTH 717 0
DWIDTH 4 0
BBX 5 4 0 0
BITMAP
D8
50
20
20
ENDCHAR

STARTCHAR Z
ENCODING 90
SWIDTH 639 0
DWIDTH 4 0
BBX 4 4 0 0
BITMAP
F0
A0
50
F0
ENDCHAR

STARTCHAR bracketleft
ENCODING 91
SWIDTH 327 0
DWIDTH 2 0
BBX 2 5 0 -1
BITMAP
C0
80
80
80
C0
ENDCHAR

STARTCHAR backslash
ENCODING 92
SWIDTH 527 0
DWIDTH 3 0
BBX 3 5 0 -1
BITMAP
80
C0
40
20
20
ENDCHAR

STARTCHAR bracketright
ENCODING 93
SWIDTH 327 0
DWIDTH 2 0
BBX 2 5 0 -1
BITMAP
C0
40
40
40
C0
ENDCHAR

STARTCHAR asciicircum
ENCODING 94
SWIDTH 623 0
DWIDTH 4 0
BBX 3 4 0 1
BITMAP
40
40
E0
A0
ENDCHAR

STARTCHAR underscore
ENCODING 95
SWIDTH 500 0
DWIDTH 3 0
BBX 2 1 1 0
BITMAP
C0
ENDCHAR

STARTCHAR quoteleft
ENCODING 96
SWIDTH 265 0
DWIDTH 2 0
BBX 1 2 0 2
BITMAP
80
80
ENDCHAR

STARTCHAR a
ENCODING 97
SWIDTH 556 0
DWIDTH 3 0
BBX 3 3 0 0
BITMAP
E0
E0
E0
ENDCHAR

STARTCHAR b
ENCODING 98
SWIDTH 640 0
DWIDTH 4 0
BBX 3 4 0 0
BITMAP
80
E0
A0
E0
ENDCHAR

STARTCHAR c
ENCODING 99
SWIDTH 541 0
DWIDTH 3 0
BBX 3 3 0 0
BITMAP
E0
80
E0
ENDCHAR

STARTCHAR d
ENCODING 100
SWIDTH 652 0
DWIDTH 4 0
BBX 3 4 1 0
BITMAP
20
E0
A0
E0
ENDCHAR

STARTCHAR e
ENCODING 101
SWIDTH 568 0
DWIDTH 3 0
BBX 3 3 0 0
BITMAP
E0
E0
E0
ENDCHAR

STARTCHAR f
ENCODING 102
SWIDTH 416 0
DWIDTH 2 0
BBX 2 4 0 0
BITMAP
C0
C0
80
80
ENDCHAR

STARTCHAR g
ENCODING 103
SWIDTH 599 0
DWIDTH 4 0
BBX 4 4 0 -1
BITMAP
F0
E0
E0
E0
ENDCHAR

STARTCHAR h
ENCODING 104
SWIDTH 654 0
DWIDTH 4 0
BBX 3 4 1 0
BITMAP
80
E0
A0
A0
ENDCHAR

STARTCHAR i
ENCODING 105
SWIDTH 325 0
DWIDTH 2 0
BBX 1 4 0 0
BITMAP
80
80
80
80
ENDCHAR

STARTCHAR j
ENCODING 106
SWIDTH 355 0
DWIDTH 2 0
BBX 2 5 0 -1
BITMAP
40
40
40
C0
C0
ENDCHAR

STARTCHAR k
ENCODING 107
SWIDTH 654 0
DWIDTH 4 0
BBX 3 4 1 0
BITMAP
80
A0
C0
A0
ENDCHAR

STARTCHAR l
ENCODING 108
SWIDTH 325 0
DWIDTH 2 0
BBX 1 4 0 0
BITMAP
80
80
80
80
ENDCHAR

STARTCHAR m
ENCODING 109
SWIDTH 967 0
DWIDTH 6 0
BBX 5 3 0 0
BITMAP
F8
A8
A8
ENDCHAR

STARTCHAR n
ENCODING 110
SWIDTH 654 0
DWIDTH 4 0
BBX 3 3 1 0
BITMAP
E0
A0
A0
ENDCHAR

STARTCHAR o
ENCODING 111
SWIDTH 617 0
DWIDTH 4 0
BBX 3 3 0 0
BITMAP
E0
A0
E0
ENDCHAR

STARTCHAR p
ENCODING 112
SWIDTH 652 0
DWIDTH 4 0
BBX 3 4 0 -1
BITMAP
E0
A0
E0
80
ENDCHAR

STARTCHAR q
ENCODING 113
SWIDTH 640 0
DWIDTH 4 0
BBX 3 4 1 -1
BITMAP
E0
A0
E0
20
ENDCHAR

STARTCHAR r
ENCODING 114
SWIDTH 462 0
DWIDTH 3 0
BBX 2 3 0 0
BITMAP
C0
80
C0
ENDCHAR

STARTCHAR s
ENCODING 115
SWIDTH 525 0
DWIDTH 3 0
BBX 3 3 0 0
BITMAP
E0
E0
E0
ENDCHAR

STARTCHAR t
ENCODING 116
SWIDTH 389 0
DWIDTH 2 0
BBX 2 4 0 0
BITMAP
80
C0
80
C0
ENDCHAR

STARTCHAR u
ENCODING 117
SWIDTH 654 0
DWIDTH 4 0
BBX 3 3 0 0
BITMAP
A0
A0
E0
ENDCHAR

STARTCHAR v
ENCODING 118
SWIDTH 657 0
DWIDTH 4 0
BBX 4 3 0 0
BITMAP
D0
50
60
ENDCHAR

STARTCHAR w
ENCODING 119
SWIDTH 880 0
DWIDTH 5 0
BBX 5 3 0 0
BITMAP
E8
F8
50
ENDCHAR

STARTCHAR x
ENCODING 120
SWIDTH 608 0
DWIDTH 4 0
BBX 4 3 0 0
BITMAP
F0
60
B0
ENDCHAR

STARTCHAR y
ENCODING 121
SWIDTH 654 0
DWIDTH 4 0
BBX 4 4 0 -1
BITMAP
D0
50
60
40
ENDCHAR

STARTCHAR z
ENCODING 122
SWIDTH 584 0
DWIDTH 4 0
BBX 3 3 0 0
BITMAP
E0
C0
E0
ENDCHAR

STARTCHAR braceleft
ENCODING 123
SWIDTH 366 0
DWIDTH 2 0
BBX 1 5 1 -1
BITMAP
80
80
80
80
80
ENDCHAR

STARTCHAR bar
ENCODING 124
SWIDTH 259 0
DWIDTH 2 0
BBX 1 5 0 -1
BITMAP
80
80
80
80
80
ENDCHAR

STARTCHAR braceright
ENCODING 125
SWIDTH 366 0
DWIDTH 2 0
BBX 1 5 3 -1
BITMAP
80
80
80
80
80
ENDCHAR

STARTCHAR asciitilde
ENCODING 126
SWIDTH 623 0
DWIDTH 4 0
BBX 4 2 0 1
BITMAP
D0
B0
ENDCHAR

STARTCHAR exclamdown
ENCODING 161
SWIDTH 265 0
DWIDTH 2 0
BBX 1 4 0 -1
BITMAP
80
80
80
80
ENDCHAR

STARTCHAR cent
ENCODING 162
SWIDTH 623 0
DWIDTH 4 0
BBX 3 4 0 0
BITMAP
40
E0
E0
60
ENDCHAR

STARTCHAR sterling
ENCODING 163
SWIDTH 623 0
DWIDTH 4 0
BBX 3 4 1 0
BITMAP
60
60
40
E0
ENDCHAR

STARTCHAR currency
ENCODING 164
SWIDTH 623 0
DWIDTH 4 0
BBX 5 5 0 -1
BITMAP
88
70
50
70
88
ENDCHAR

STARTCHAR yen
ENCODING 165
SWIDTH 623 0
DWIDTH 4 0
BBX 4 4 0 0
BITMAP
B0
40
40
40
ENDCHAR

STARTCHAR brokenbar
ENCODING 166
SWIDTH 259 0
DWIDTH 2 0
BBX 1 5 0 -1
BITMAP
80
80
80
80
80
ENDCHAR

STARTCHAR section
ENCODING 167
SWIDTH 623 0
DWIDTH 4 0
BBX 3 5 0 -1
BITMAP
E0
A0
E0
A0
E0
ENDCHAR

STARTCHAR dieresis
ENCODING 168
SWIDTH 617 0
DWIDTH 4 0
BBX 2 1 1 3
BITMAP
C0
ENDCHAR

STARTCHAR copyright
ENCODING 169
SWIDTH 855 0
DWIDTH 5 0
BBX 5 4 0 0
BITMAP
70
B8
B8
70
ENDCHAR

STARTCHAR ordfeminine
ENCODING 170
SWIDTH 488 0
DWIDTH 3 0
BBX 3 3 0 1
BITMAP
E0
E0
E0
ENDCHAR

STARTCHAR guillemotleft
ENCODING 171
SWIDTH 566 0
DWIDTH 3 0
BBX 4 3 0 0
BITMAP
50
A0
50
ENDCHAR

STARTCHAR logicalnot
ENCODING 172
SWIDTH 623 0
DWIDTH 4 0
BBX 4 2 0 1
BITMAP
F0
10
ENDCHAR

STARTCHAR hyphen
ENCODING 173
SWIDTH 289 0
DWIDTH 2 0
BBX 1 1 0 2
BITMAP
80
ENDCHAR

STARTCHAR registered
ENCODING 174
SWIDTH 623 0
DWIDTH 4 0
BBX 4 3 0 1
BITMAP
60
F0
60
ENDCHAR

STARTCHAR macron
ENCODING 175
SWIDTH 617 0
DWIDTH 4 0
BBX 2 1 1 3
BITMAP
C0
ENDCHAR

STARTCHAR degree
ENCODING 176
SWIDTH 259 0
DWIDTH 2 0
BBX 2 1 0 3
BITMAP
C0
ENDCHAR

STARTCHAR plusminus
ENCODING 177
SWIDTH 623 0
DWIDTH 4 0
BBX 5 4 0 0
BITMAP
20
F8
20
F8
ENDCHAR

STARTCHAR twosuperior
ENCODING 178
SWIDTH 374 0
DWIDTH 2 0
BBX 2 3 -3 1
BITMAP
C0
C0
C0
ENDCHAR

STARTCHAR threesuperior
ENCODING 179
SWIDTH 374 0
DWIDTH 2 0
BBX 3 3 -3 1
BITMAP
E0
C0
E0
ENDCHAR

STARTCHAR acute
ENCODING 180
SWIDTH 617 0
DWIDTH 4 0
BBX 1 1 2 3
BITMAP
80
ENDCHAR

STARTCHAR mu
ENCODING 181
SWIDTH 705 0
DWIDTH 4 0
BBX 3 4 1 -1
BITMAP
A0
A0
E0
80
ENDCHAR

STARTCHAR paragraph
ENCODING 182
SWIDTH 623 0
DWIDTH 4 0
BBX 2 5 1 -1
BITMAP
C0
C0
C0
C0
C0
ENDCHAR

STARTCHAR periodcentered
ENCODING 183
SWIDTH 623 0
DWIDTH 4 0
BBX 1 1 1 1
BITMAP
80
ENDCHAR

STARTCHAR cedilla
ENCODING 184
SWIDTH 617 0
DWIDTH 4 0
BBX 1 2 1 -1
BITMAP
80
80
ENDCHAR

STARTCHAR onesuperior
ENCODING 185
SWIDTH 374 0
DWIDTH 2 0
BBX 2 3 -3 1
BITMAP
C0
40
C0
ENDCHAR

STARTCHAR ordmasculine
ENCODING 186
SWIDTH 488 0
DWIDTH 3 0
BBX 3 2 0 2
BITMAP
E0
E0
ENDCHAR

STARTCHAR guillemotright
ENCODING 187
SWIDTH 566 0
DWIDTH 3 0
BBX 4 3 0 0
BITMAP
A0
50
A0
ENDCHAR

STARTCHAR onequarter
ENCODING 188
SWIDTH 803 0
DWIDTH 5 0
BBX 5 4 -3 0
BITMAP
D0
68
D8
98
ENDCHAR

STARTCHAR onehalf
ENCODING 189
SWIDTH 803 0
DWIDTH 5 0
BBX 5 4 -3 0
BITMAP
D0
78
D8
98
ENDCHAR

STARTCHAR threequarters
ENCODING 190
SWIDTH 803 0
DWIDTH 5 0
BBX 5 4 -3 0
BITMAP
F0
E8
F8
98
ENDCHAR

STARTCHAR questiondown
ENCODING 191
SWIDTH 505 0
DWIDTH 3 0
BBX 3 4 0 -1
BITMAP
40
40
A0
E0
ENDCHAR

STARTCHAR Agrave
ENCODING 192
SWIDTH 795 0
DWIDTH 5 0
BBX 5 5 0 0
BITMAP
20
20
70
F0
98
ENDCHAR

STARTCHAR Aacute
ENCODING 193
SWIDTH 795 0
DWIDTH 5 0
BBX 5 5 0 0
BITMAP
20
20
70
F0
98
ENDCHAR

STARTCHAR Acircumflex
ENCODING 194
SWIDTH 795 0
DWIDTH 5 0
BBX 5 5 0 0
BITMAP
60
20
70
F0
98
ENDCHAR

STARTCHAR Atilde
ENCODING 195
SWIDTH 795 0
DWIDTH 5 0
BBX 5 5 0 0
BITMAP
70
20
70
F0
98
ENDCHAR

STARTCHAR Adieresis
ENCODING 196
SWIDTH 795 0
DWIDTH 5 0
BBX 5 5 0 0
BITMAP
60
20
70
F0
98
ENDCHAR

STARTCHAR Aring
ENCODING 197
SWIDTH 795 0
DWIDTH 5 0
BBX 5 5 0 0
BITMAP
60
20
70
F0
98
ENDCHAR

STARTCHAR AE
ENCODING 198
SWIDTH 959 0
DWIDTH 6 0
BBX 5 4 0 0
BITMAP
38
78
60
B8
ENDCHAR

STARTCHAR Ccedilla
ENCODING 199
SWIDTH 711 0
DWIDTH 4 0
BBX 4 5 0 -1
BITMAP
70
90
80
70
20
ENDCHAR

STARTCHAR Egrave
ENCODING 200
SWIDTH 601 0
DWIDTH 4 0
BBX 3 5 0 0
BITMAP
40
E0
E0
80
E0
ENDCHAR

STARTCHAR Eacute
ENCODING 201
SWIDTH 601 0
DWIDTH 4 0
BBX 3 5 0 0
BITMAP
40
E0
E0
80
E0
ENDCHAR

STARTCHAR Ecircumflex
ENCODING 202
SWIDTH 601 0
DWIDTH 4 0
BBX 3 5 0 0
BITMAP
60
E0
E0
80
E0
ENDCHAR

STARTCHAR Edieresis
ENCODING 203
SWIDTH 601 0
DWIDTH 4 0
BBX 3 5 0 0
BITMAP
60
E0
E0
80
E0
ENDCHAR

STARTCHAR Igrave
ENCODING 204
SWIDTH 349 0
DWIDTH 2 0
BBX 1 5 1 0
BITMAP
80
80
80
80
80
ENDCHAR

STARTCHAR Iacute
ENCODING 205
SWIDTH 349 0
DWIDTH 2 0
BBX 1 5 1 0
BITMAP
80
80
80
80
80
ENDCHAR

STARTCHAR Icircumflex
ENCODING 206
SWIDTH 349 0
DWIDTH 2 0
BBX 2 5 2 0
BITMAP
C0
40
40
40
40
ENDCHAR

STARTCHAR Idieresis
ENCODING 207
SWIDTH 349 0
DWIDTH 2 0
BBX 2 5 2 0
BITMAP
C0
40
40
40
40
ENDCHAR

STARTCHAR Eth
ENCODING 208
SWIDTH 794 0
DWIDTH 5 0
BBX 5 4 0 0
BITMAP
70
E8
48
70
ENDCHAR

STARTCHAR Ntilde
ENCODING 209
SWIDTH 788 0
DWIDTH 5 0
BBX 4 5 0 0
BITMAP
70
90
D0
B0
90
ENDCHAR

STARTCHAR Ograve
ENCODING 210
SWIDTH 810 0
DWIDTH 5 0
BBX 4 5 0 0
BITMAP
40
60
90
90
60
ENDCHAR

STARTCHAR Oacute
ENCODING 211
SWIDTH 810 0
DWIDTH 5 0
BBX 4 5 0 0
BITMAP
20
60
90
90
60
ENDCHAR

STARTCHAR Ocircumflex
ENCODING 212
SWIDTH 810 0
DWIDTH 5 0
BBX 4 5 0 0
BITMAP
60
60
90
90
60
ENDCHAR

STARTCHAR Otilde
ENCODING 213
SWIDTH 810 0
DWIDTH 5 0
BBX 4 5 0 0
BITMAP
E0
60
90
90
60
ENDCHAR

STARTCHAR Odieresis
ENCODING 214
SWIDTH 810 0
DWIDTH 5 0
BBX 4 5 0 0
BITMAP
60
60
90
90
60
ENDCHAR

STARTCHAR multiply
ENCODING 215
SWIDTH 623 0
DWIDTH 4 0
BBX 3 3 0 0
BITMAP
A0
40
A0
ENDCHAR

STARTCHAR Oslash
ENCODING 216
SWIDTH 810 0
DWIDTH 5 0
BBX 5 4 0 0
BITMAP
78
B0
D0
E0
ENDCHAR

STARTCHAR Ugrave
ENCODING 217
SWIDTH 747 0
DWIDTH 4 0
BBX 4 5 0 0
BITMAP
40
90
90
90
F0
ENDCHAR

STARTCHAR Uacute
ENCODING 218
SWIDTH 747 0
DWIDTH 4 0
BBX 4 5 0 0
BITMAP
20
90
90
90
F0
ENDCHAR

STARTCHAR Ucircumflex
ENCODING 219
SWIDTH 747 0
DWIDTH 4 0
BBX 4 5 0 0
BITMAP
60
90
90
90
F0
ENDCHAR

STARTCHAR Udieresis
ENCODING 220
SWIDTH 747 0
DWIDTH 4 0
BBX 4 5 0 0
BITMAP
60
90
90
90
F0
ENDCHAR

STARTCHAR Yacute
ENCODING 221
SWIDTH 717 0
DWIDTH 4 0
BBX 5 5 0 0
BITMAP
20
D8
50
20
20
ENDCHAR

STARTCHAR Thorn
ENCODING 222
SWIDTH 614 0
DWIDTH 4 0
BBX 3 4 0 0
BITMAP
80
E0
E0
80
ENDCHAR

STARTCHAR germandbls
ENCODING 223
SWIDTH 700 0
DWIDTH 4 0
BBX 4 4 0 0
BITMAP
C0
C0
B0
F0
ENDCHAR

STARTCHAR agrave
ENCODING 224
SWIDTH 556 0
DWIDTH 3 0
BBX 3 4 0 0
BITMAP
40
E0
E0
E0
ENDCHAR

STARTCHAR aacute
ENCODING 225
SWIDTH 556 0
DWIDTH 3 0
BBX 3 4 0 0
BITMAP
40
E0
E0
E0
ENDCHAR

STARTCHAR acircumflex
ENCODING 226
SWIDTH 556 0
DWIDTH 3 0
BBX 3 4 0 0
BITMAP
C0
E0
E0
E0
ENDCHAR

STARTCHAR atilde
ENCODING 227
SWIDTH 556 0
DWIDTH 3 0
BBX 3 4 0 0
BITMAP
E0
E0
E0
E0
ENDCHAR

STARTCHAR adieresis
ENCODING 228
SWIDTH 556 0
DWIDTH 3 0
BBX 3 4 0 0
BITMAP
C0
E0
E0
E0
ENDCHAR

STARTCHAR aring
ENCODING 229
SWIDTH 556 0
DWIDTH 3 0
BBX 3 4 0 0
BITMAP
C0
E0
E0
E0
ENDCHAR

STARTCHAR ae
ENCODING 230
SWIDTH 858 0
DWIDTH 5 0
BBX 5 3 0 0
BITMAP
F8
F8
D8
ENDCHAR

STARTCHAR ccedilla
ENCODING 231
SWIDTH 541 0
DWIDTH 3 0
BBX 3 4 0 -1
BITMAP
E0
80
E0
40
ENDCHAR

STARTCHAR egrave
ENCODING 232
SWIDTH 568 0
DWIDTH 3 0
BBX 3 4 0 0
BITMAP
40
E0
E0
E0
ENDCHAR

STARTCHAR eacute
ENCODING 233
SWIDTH 568 0
DWIDTH 3 0
BBX 3 4 0 0
BITMAP
40
E0
E0
E0
ENDCHAR

STARTCHAR ecircumflex
ENCODING 234
SWIDTH 568 0
DWIDTH 3 0
BBX 3 4 0 0
BITMAP
60
E0
E0
E0
ENDCHAR

STARTCHAR edieresis
ENCODING 235
SWIDTH 568 0
DWIDTH 3 0
BBX 3 4 0 0
BITMAP
60
E0
E0
E0
ENDCHAR

STARTCHAR igrave
ENCODING 236
SWIDTH 325 0
DWIDTH 2 0
BBX 1 4 0 0
BITMAP
80
80
80
80
ENDCHAR

STARTCHAR iacute
ENCODING 237
SWIDTH 325 0
DWIDTH 2 0
BBX 1 4 0 0
BITMAP
80
80
80
80
ENDCHAR

STARTCHAR icircumflex
ENCODING 238
SWIDTH 325 0
DWIDTH 2 0
BBX 2 4 1 0
BITMAP
C0
40
40
40
ENDCHAR

STARTCHAR idieresis
ENCODING 239
SWIDTH 325 0
DWIDTH 2 0
BBX 2 4 1 0
BITMAP
C0
40
40
40
ENDCHAR

STARTCHAR eth
ENCODING 240
SWIDTH 652 0
DWIDTH 4 0
BBX 3 4 0 0
BITMAP
E0
E0
A0
E0
ENDCHAR

STARTCHAR ntilde
ENCODING 241
SWIDTH 654 0
DWIDTH 4 0
BBX 3 4 1 0
BITMAP
E0
E0
A0
A0
ENDCHAR

STARTCHAR ograve
ENCODING 242
SWIDTH 617 0
DWIDTH 4 0
BBX 3 4 0 0
BITMAP
40
E0
A0
E0
ENDCHAR

STARTCHAR oacute
ENCODING 243
SWIDTH 617 0
DWIDTH 4 0
BBX 3 4 0 0
BITMAP
40
E0
A0
E0
ENDCHAR

STARTCHAR ocircumflex
ENCODING 244
SWIDTH 617 0
DWIDTH 4 0
BBX 3 4 0 0
BITMAP
60
E0
A0
E0
ENDCHAR

STARTCHAR otilde
ENCODING 245
SWIDTH 617 0
DWIDTH 4 0
BBX 3 4 0 0
BITMAP
E0
E0
A0
E0
ENDCHAR

STARTCHAR odieresis
ENCODING 246
SWIDTH 617 0
DWIDTH 4 0
BBX 3 4 0 0
BITMAP
60
E0
A0
E0
ENDCHAR

STARTCHAR divide
ENCODING 247
SWIDTH 623 0
DWIDTH 4 0
BBX 3 3 0 0
BITMAP
40
E0
40
ENDCHAR

STARTCHAR oslash
ENCODING 248
SWIDTH 617 0
DWIDTH 4 0
BBX 4 3 0 0
BITMAP
F0
E0
E0
ENDCHAR

STARTCHAR ugrave
ENCODING 249
SWIDTH 654 0
DWIDTH 4 0
BBX 3 4 0 0
BITMAP
40
A0
A0
E0
ENDCHAR

STARTCHAR uacute
ENCODING 250
SWIDTH 654 0
DWIDTH 4 0
BBX 3 4 0 0
BITMAP
40
A0
A0
E0
ENDCHAR

STARTCHAR ucircumflex
ENCODING 251
SWIDTH 654 0
DWIDTH 4 0
BBX 3 4 0 0
BITMAP
60
A0
A0
E0
ENDCHAR

STARTCHAR udieresis
ENCODING 252
SWIDTH 654 0
DWIDTH 4 0
BBX 3 4 0 0
BITMAP
60
A0
A0
E0
ENDCHAR

STARTCHAR yacute
ENCODING 253
SWIDTH 654 0
DWIDTH 4 0
BBX 4 5 0 -1
BITMAP
20
D0
50
60
40
ENDCHAR

STARTCHAR thorn
ENCODING 254
SWIDTH 652 0
DWIDTH 4 0
BBX 3 5 0 -1
BITMAP
80
E0
A0
E0
80
ENDCHAR

STARTCHAR ydieresis
ENCODING 255
SWIDTH 654 0
DWIDTH 4 0
BBX 4 5 0 -1
BITMAP
60
D0
50
60
40
ENDCHAR
ENDFONT
